<mxfile host="app.diagrams.net" modified="2023-11-03T00:11:20.787Z" agent="Mozilla/5.0 (Windows NT 10.0; Win64; x64) AppleWebKit/537.36 (KHTML, like Gecko) Chrome/119.0.0.0 Safari/537.36" version="21.7.5" etag="3vOxtZemjrHjJyIe44Nv" type="github">
  <diagram name="Page-1" id="EK-DCXNk7a_p8jkPBpUH">
    <mxGraphModel>
      <root>
        <mxCell id="0" />
        <mxCell id="1" parent="0" />
      </root>
    </mxGraphModel>
  </diagram>
</mxfile>
